# xmcd CD database file
#
# Track frame offsets:
#	150
#	14917
#	27495
#	40817
#	55685
#	67790
#	85820
#	104250
#	122617
#	134830
#	151645
#	170340
#	184047
#
# Disc length: 2762 seconds
#
# Revision: 3
# Processed by: cddbd v1.4PL0 Copyright (c) Steve Scherf et al.
# Submitted via: CDex 1.40Release
#
DISCID=a50ac80d
DTITLE=Kevin Henderson - Fly, fly away
DYEAR=1900
DGENRE=Country
TTITLE0=My heart is in the country
TTITLE1=What I wouldn't do
TTITLE2=Hotline
TTITLE3=Let me be the first to make it last
TTITLE4='Til the cows come home
TTITLE5=Swim the river in the winter
TTITLE6=I'll be seeing you
TTITLE7=Little green aliens
TTITLE8=I refuse to play a two-step anymore
TTITLE9=Soup the poissons
TTITLE10=Road dogs
TTITLE11=You and only you
TTITLE12=Fly, fly away
EXTD=ID3G: 2
EXTT0=
EXTT1=
EXTT2=
EXTT3=
EXTT4=
EXTT5=
EXTT6=
EXTT7=
EXTT8=
EXTT9=
EXTT10=
EXTT11=
EXTT12=
PLAYORDER=
